# xmcd
#
# Track frame offsets:
#	150
#	16609
#	37510
#	54434
#	71268
#	91958
#	102927
#	118997
#	133859
#	151545
#	168911
#	184788
#	201132
#
# Disc length: 2847 seconds
#
# Revision: 1
# Processed by: cddbd v1.4PL0 Copyright (c) Steve Scherf et al.
# Submitted via: audiograbber 1.80
#
DISCID=970b1d0d
DTITLE=The Melroys - The Melroys
DYEAR=1900
DGENRE=
TTITLE0=I Don't Care
TTITLE1=Where the Good Ones Go
TTITLE2=Who'd a Thought You'd Be the one to go
TTITLE3=I Can't Forget
TTITLE4=Top of my World
TTITLE5=The Hideaway
TTITLE6=Where the Highway Meets the Sky
TTITLE7=Not That Kind of Guy
TTITLE8=You won't Even Know I'm Gone
TTITLE9=Walk On
TTITLE10=Laverne
TTITLE11=When I Get Over You
TTITLE12=Lover Please
EXTD=
EXTT0=
EXTT1=
EXTT2=
EXTT3=
EXTT4=
EXTT5=
EXTT6=
EXTT7=
EXTT8=
EXTT9=
EXTT10=
EXTT11=
EXTT12=
PLAYORDER=
